<svg width="78" height="75" viewBox="0 0 78 75" fill="none" xmlns="http://www.w3.org/2000/svg">
<path d="M78 52.5V7.5C78 5.51088 77.1782 3.60322 75.7154 2.1967C74.2526 0.790176 72.2687 0 70.2 0H23.4C21.3313 0 19.3474 0.790176 17.8846 2.1967C16.4218 3.60322 15.6 5.51088 15.6 7.5V52.5C15.6 54.4891 16.4218 56.3968 17.8846 57.8033C19.3474 59.2098 21.3313 60 23.4 60H70.2C72.2687 60 74.2526 59.2098 75.7154 57.8033C77.1782 56.3968 78 54.4891 78 52.5ZM35.1 37.5L43.017 47.6625L54.6 33.75L70.2 52.5H23.4M0 15V67.5C0 69.4891 0.821783 71.3968 2.28457 72.8033C3.74735 74.2098 5.73131 75 7.8 75H62.4V67.5H7.8V15" fill="#777CB6"/>
</svg>
