<svg width="77" height="34" viewBox="0 0 77 34" fill="none" xmlns="http://www.w3.org/2000/svg">
<path d="M15.8481 32.7021H22.831L13.8827 19.9798L22.3548 10.302H14.9565L6.39166 20.2043V0H0V32.7021H6.39166V27.2804L9.5108 23.7408L15.8481 32.7021Z" fill="#777CB6"/>
<path d="M25.2499 32.7013H31.6415V22.1286C31.6415 17.9617 33.1308 16.2611 36.528 16.2611H40.5803V10.3013H38.0236C34.8565 10.3013 32.7633 11.6451 31.5968 13.9915V10.3013H25.2499V32.7013Z" fill="#EF7D52"/>
<path d="M53.9456 33.148C56.972 33.148 59.4392 31.9394 60.9764 30.1927V32.7021H67.3681V0H60.9764V12.4978C59.4424 10.9294 57.0679 9.85614 54.0414 9.85614C48.7811 9.85614 42.7282 13.5741 42.7282 21.5021C42.7282 29.43 49.024 33.148 53.9456 33.148ZM55.2015 27.5049C53.5652 27.4694 52.0083 26.8188 50.8641 25.6926C49.7198 24.5664 49.0792 23.054 49.0792 21.479C49.0792 19.904 49.7198 18.3915 50.8641 17.2653C52.0083 16.1391 53.5652 15.4886 55.2015 15.453C58.6466 15.453 61.1618 18.1408 61.1618 21.4559C61.1618 24.771 58.6594 27.5049 55.2239 27.5049H55.2015Z" fill="#EFDA63"/>
<path d="M70.6243 32.7012H77V26.5508H70.6243V32.7012Z" fill="#A0A0A0"/>
</svg>
