<svg xmlns="http://www.w3.org/2000/svg" width="159" height="153" fill="none"><path fill="#777CB6" d="M44.352 102.108h11.535L41.105 81.092 55.1 65.105H42.88L28.73 81.463V48.086H18.172v54.022H28.73v-8.956l5.153-5.847 10.469 14.803Z"/><path fill="#EF7D52" d="M59.883 102.107h10.559V84.642c0-6.884 2.46-9.693 8.072-9.693h6.694v-9.846h-4.224c-5.231 0-8.69 2.22-10.616 6.097v-6.097H59.883v37.004Z"/><path fill="#EFDA63" d="M107.287 102.845c4.999 0 9.075-1.996 11.614-4.882v4.145h10.559V48.086h-10.559v20.646c-2.534-2.59-6.457-4.364-11.456-4.364-8.69 0-18.689 6.142-18.689 19.239 0 13.096 10.4 19.238 18.531 19.238Zm2.074-9.322c-2.703-.059-5.275-1.133-7.165-2.994-1.89-1.86-2.948-4.359-2.948-6.96 0-2.602 1.058-5.1 2.948-6.961 1.89-1.86 4.462-2.935 7.165-2.994 5.691 0 9.846 4.44 9.846 9.916 0 5.477-4.133 9.993-9.809 9.993h-.037Z"/><path fill="#A0A0A0" d="M134.839 102.107h10.532v-10.16h-10.532v10.16Z"/></svg>