<svg xmlns="http://www.w3.org/2000/svg" width="21" height="45" fill="none"><g clip-path="url(#a)"><path fill="#fff" d="m3.89 5.438 15.797 15.75c.188.187.32.39.398.609.079.219.118.453.118.703 0 .25-.04.484-.118.703-.078.219-.21.422-.398.61L3.892 39.608c-.438.438-.985.657-1.641.657a2.301 2.301 0 0 1-1.687-.703c-.47-.47-.704-1.016-.704-1.641s.235-1.172.704-1.64L14.343 22.5.564 8.719c-.438-.438-.657-.976-.657-1.616 0-.642.235-1.197.703-1.665.47-.47 1.016-.704 1.641-.704s1.172.235 1.64.704Z"/></g><defs><clipPath id="a"><path fill="#fff" d="M21 45H0V0h21z"/></clipPath></defs></svg>